<?xml version="1.0" standalone="no"?>
<!DOCTYPE svg PUBLIC "-//W3C//DTD SVG 20010904//EN"
 "http://www.w3.org/TR/2001/REC-SVG-20010904/DTD/svg10.dtd">
<svg version="1.0" xmlns="http://www.w3.org/2000/svg"
 width="1032.000000pt" height="1032.000000pt" viewBox="0 0 1032.000000 1032.000000"
 preserveAspectRatio="xMidYMid meet">
<metadata>
Created by potrace 1.14, written by Peter Selinger 2001-2017
</metadata>
<g transform="translate(0.000000,1032.000000) scale(0.100000,-0.100000)"
fill="#000000" stroke="none">
<path d="M1700 7118 c0 -2827 2 -3204 15 -3288 90 -552 463 -1141 1182 -1867
380 -384 747 -705 1538 -1348 396 -322 613 -505 679 -574 l40 -41 95 93 c143
138 271 245 759 634 816 652 1159 949 1527 1324 673 685 1015 1259 1084 1819
8 57 11 1098 11 3262 l0 3178 -3465 0 -3465 0 0 -3192z m3626 2822 c159 -41
293 -128 460 -302 622 -648 1169 -2131 1421 -3854 l26 -182 654 -7 653 -7 0
-74 0 -74 -1055 0 c-998 0 -1055 -1 -1054 -17 0 -10 28 -254 62 -543 l62 -525
985 -5 985 -5 0 -75 0 -75 -3355 0 -3355 0 -3 78 -3 77 985 0 c563 0 987 4
990 9 6 10 166 1043 166 1073 0 17 -40 18 -1060 18 l-1060 0 0 80 0 80 660 0
c363 0 660 2 660 4 0 2 11 86 25 187 195 1438 593 2663 1131 3481 232 352 501
618 672 664 76 20 256 17 348 -6z m528 -6320 c146 -139 256 -313 354 -556 38
-94 40 -96 182 -124 54 -10 112 -26 129 -34 16 -9 41 -16 54 -16 38 0 507
-179 562 -215 60 -39 95 -71 95 -88 0 -7 -44 -46 -97 -88 -54 -42 -174 -145
-268 -229 -93 -84 -180 -159 -192 -167 -48 -32 -73 3 -168 222 -26 61 -65 145
-86 187 -22 43 -39 84 -39 93 0 8 11 22 24 30 22 15 29 15 81 0 70 -21 78 -29
139 -137 59 -107 78 -125 109 -111 32 15 177 153 177 169 0 28 -151 90 -410
169 -116 35 -155 43 -165 35 -11 -9 -14 -48 -14 -166 -1 -100 -7 -182 -17
-231 -103 -501 -578 -939 -1103 -1018 -53 -8 -163 -15 -245 -15 -123 0 -168 4
-264 26 -297 67 -557 192 -774 373 -129 108 -209 204 -321 385 -131 210 -167
330 -167 550 0 186 7 215 112 436 36 74 55 99 146 188 87 84 120 110 191 145
l86 42 160 -1 c144 0 168 -3 237 -26 186 -62 310 -198 348 -382 8 -40 10 -94
5 -162 -4 -67 -3 -104 4 -108 5 -4 54 19 108 50 158 91 318 156 458 185 41 9
164 13 393 13 384 -1 355 -12 297 114 -35 75 -81 136 -95 127 -4 -3 -10 -31
-14 -62 -4 -32 -10 -63 -14 -69 -21 -32 -111 -46 -152 -24 -33 17 -40 76 -40
319 l0 235 26 28 27 27 31 -22 c17 -12 66 -56 110 -97z"/>
<path d="M5096 8214 c-389 -142 -720 -1269 -1036 -3529 -22 -159 -42 -302 -45
-317 l-4 -28 1176 0 1176 0 -7 68 c-30 295 -151 1044 -247 1527 -230 1158
-481 1910 -729 2178 -99 107 -185 138 -284 101z"/>
<path d="M4015 3266 c-129 -60 -246 -181 -321 -331 -58 -118 -78 -210 -70
-337 10 -186 88 -357 241 -531 96 -109 295 -284 385 -337 118 -71 338 -158
485 -191 41 -10 130 -14 285 -14 259 0 307 9 456 79 315 150 537 426 603 753
16 79 21 139 21 271 l0 170 -39 15 c-83 34 -251 49 -480 45 -213 -5 -218 -5
-336 -40 -142 -43 -277 -99 -378 -158 -98 -59 -224 -186 -265 -270 -58 -118
-67 -261 -23 -364 20 -46 23 -48 54 -42 44 8 426 203 460 234 26 25 29 26 75
13 26 -6 94 -33 152 -58 58 -25 146 -62 195 -83 117 -48 208 -94 224 -114 36
-43 -39 -116 -210 -206 -186 -97 -346 -140 -517 -140 -130 0 -195 14 -354 73
-78 30 -111 37 -168 37 -82 0 -117 15 -154 63 -33 44 -33 80 0 106 14 11 30
21 36 23 8 3 3 28 -15 77 -37 98 -37 202 -2 307 14 41 25 81 25 89 0 12 -20
15 -113 15 -119 0 -218 19 -249 47 -23 20 -24 90 -2 121 27 39 67 52 162 52
105 0 164 17 220 66 60 51 92 123 92 205 0 171 -62 299 -172 353 -46 23 -64
26 -152 26 -85 0 -109 -4 -151 -24z"/>
<path d="M4978 1949 c-125 -62 -158 -83 -158 -99 0 -19 7 -20 163 -20 169 0
238 10 350 51 39 15 57 27 55 36 -3 14 -219 113 -243 112 -5 0 -81 -36 -167
-80z"/>
</g>
</svg>
